<?xml version="1.0" encoding="utf-8"?>
<!-- Generator: Adobe Illustrator 22.0.1, SVG Export Plug-In . SVG Version: 6.00 Build 0)  -->
<svg version="1.1" id="Layer_1" xmlns="http://www.w3.org/2000/svg" xmlns:xlink="http://www.w3.org/1999/xlink" x="0px" y="0px"
	 viewBox="0 0 46.6 46.5" style="enable-background:new 0 0 46.6 46.5;" xml:space="preserve">
<style type="text/css">
	.st0{fill:#FFFFFF;}
</style>
<g>
	<path class="st0" d="M45.5,3.8c-15.8,0.5-22.2,8.7-22.2,8.7S16.9,4.3,1.1,3.8c0,0-1.1,0.4-1.1,1.5v32c0,0,0.6,1,1.5,1
		c0,0,12.8,0.8,20.7,7.7c0,0,0.6,0.6,1.2,0.6s1.2-0.6,1.2-0.6c7.9-6.9,20.7-7.7,20.7-7.7c0.9,0,1.5-1,1.5-1v-32
		C46.6,4.2,45.5,3.8,45.5,3.8z M43.7,35.5C34.1,35.4,24.8,42,24.8,42v-7.1c0.1-1.7-1.5-1.4-1.5-1.4s-1.6-0.4-1.5,1.4V42
		c0,0-9.3-6.5-18.9-6.4V6.7c0,0,12.3,1,18.8,8.4l0.2,7.4c0,0-0.2,0.8,1.4,0.8s1.4-0.8,1.4-0.8l0.2-7.4c2.8-3.2,6.7-5.2,10.2-6.4v8.1
		c0,0,0.4,0.9,1.4,0l1.7-1.5l1.7,0.9c0,0,0.7,0.4,1.3-0.2V7.1c1.7-0.3,2.7-0.4,2.7-0.4V35.5z"/>
	<path class="st0" d="M30.5,0.8v2.3c0,0-4.5,3.4-7.2,7.1c-2.7-3.7-7.2-7.1-7.2-7.1V0.8c0-1.2,1.1-0.7,1.1-0.7
		c2.9,1.2,6.1,8.8,6.1,8.8s3.2-7.7,6.1-8.8C29.4,0.1,30.5-0.4,30.5,0.8z"/>
	<path class="st0" d="M19.7,8c0,0-6.9-7.6-11.6-7.5c0,0-0.8-0.1-0.8,1v1.8C7.4,3.3,16.2,5.2,19.7,8z"/>
	<path class="st0" d="M26.9,8c0,0,6.9-7.6,11.6-7.5c0,0,0.8-0.1,0.8,1v1.8C39.2,3.3,30.4,5.2,26.9,8z"/>
</g>
</svg>
